<svg width="952" height="727" viewBox="0 0 952 727" fill="none" xmlns="http://www.w3.org/2000/svg"><rect x="800.321" y="357.515" width="100.23" height="100" transform="rotate(10.269 800.321 357.515)" fill="black"/><g filter="url(#filter0_d_6_252)"><path d="M903.83 12.65c32.482 20.081 45.412 49.25 43.176 85.882-.624 10.22-1.796 11.19-12.13 11.196-51.996.034-103.99.007-155.986.013-10.333.002-20.665.098-30.997.068-46.442-.134-82.636 19.937-110.725 56.055-10.214 13.134-16.9 27.97-20.297 44.136-3.355 15.973-5.957 32.107-8.765 48.192-.386 2.214-.053 4.553-.053 7.933h309.03c-.324 5.65-.146 10.214-.91 14.613-5.767 33.156-11.7 66.284-17.623 99.413-1.66 9.287-2.265 9.917-11.603 9.9-25.996-.05-51.99-.196-77.985-.44-9.846-.094-11.708 1.52-11.703 11.24.013 27.424 17.238 48.828 44.184 53.978 8.447 1.615 17.203 1.674 25.831 2.253 5.223.352 17.725-.08 16.708.513.517-.593-.51 7.65-1.07 10.823-7.346 41.676-14.73 83.346-22.175 125.005-1.63 9.122-2.845 10.2-11.555 10.23-22.998.074-45.996.074-68.993-.056-3.535-.02-7.066-.885-11.458-1.475.267-4.41.43-7.99.708-11.563 2.793-35.954-6.176-68.133-31.192-94.837-20.01-21.36-45.186-32.83-74.064-35.506-46.916-4.347-88.067 10.28-124.13 39.923-29.982 24.646-50.462 55.494-59.975 93.392-2.584 10.287-2.906 10.236-13.744 10.234-117.99-.024-235.977-.02-353.965-.128-10.65-.01-21.4.047-31.928-1.296-43.818-5.585-74.167-38.813-76.195-82.835-.276-5.98-.365-11.995-.033-17.966.28-5.03 3.102-7.712 8.536-7.583 8.66.206 17.33.067 25.996.067 115.322 0 230.645-.006 345.968.01 4.996.002 9.998.11 14.988.365 4.352.222 7.108-1.582 7.905-5.856 2.748-14.733 5.447-29.476 8.013-44.24.26-1.504-.495-3.183-.83-5.063-1.393-.415-2.61-1.102-3.825-1.095-43.982.26-87.964.734-131.947.86-46.328.13-92.657-.01-138.985-.164-9.656-.03-19.36-.128-28.956-1.068-43.948-4.305-76.646-39.282-77.995-83.356-.24-7.855-1.413-15.935 2.314-24.787H49.09c119.988-.028 239.977-.066 359.966-.054 6.323 0 12.656.278 18.965.707 3.68.25 7.078-.178 7.96-4.17 3.72-16.837 7.006-33.76 8.996-51.668-3.522-.314-6.082-.742-8.642-.74-93.323.062-186.646.173-279.97.25-12.043.01-24.018-.736-35.468-4.94-31.666-11.63-51.654-33.433-57.242-67.13-1.515-9.137-1.765-18.567-1.69-27.855.058-7.362 1.884-8.59 9.022-8.994 2.659-.15 5.331-.078 7.998-.08 119.655-.048 239.31-.106 358.965-.108 6.32 0 12.65.37 18.964.754 4.2.254 7.494-1.057 8.366-5.333 3.31-16.247 7.12-32.434 8.103-49.932-3.29-.353-5.81-.858-8.327-.857-84.658.01-169.317.108-253.975.074-12.988-.005-26.033.08-38.956-1.02-45.066-3.826-76.146-34.56-80.855-79.528-.659-6.275-.74-12.66-.472-18.969.338-7.928 2.521-9.874 10.49-10 7.997-.128 15.998.122 23.997.12C354.93.127 584.575.067 814.22.078c15.992.002 31.982.524 47.973.805 14.653.258 28.173 4.595 41.636 11.768zM212.057 413.564c-.853-.217-5.083-.87-6.268-2.35-3-.5-3.548-1.435-7.79-1.714-4.242-.28-6.97-1.144-11-2 0 0-6.828.504-7.5-.84-4.988-1.436-11.92-1.204-17-2.16-12.7-2.392-19.91-.174-31-5.5-11.193-.988-22.277-4.83-32-10-14.18-7.538-25.727-19.137-37-30.5-2.576-2.597-8.331-5.425-9-9-1.625-1.18-1.591-1.848-3-1.075-1.521.835.17 2.977 0 5.075-.179 2.213 1.236 4.832 2 7 1.988 5.64 7.348 18.172 10 23.5 17 17 21.5 19.5 46 28.5 3.412.424 10.5 2.22 14.26 2.088 6.997.05 13.994.204 20.99.133 14.968-.153 29.935-.422 46.23.175 4.87.108 9.742-1.6 15.81-.307 4.242.407 7.7-2.916 11.21 0 3.875-.11-6.424 4.2-3-1.024-5.74-4.127 7.255 2.337-1.942 0zM78.034 561.894c-8.617-6.228-17.32-12.34-25.826-18.717-8.364-6.27-14.03-15.72-24.608-22.032.335 3.887.142 6.174.766 8.212 9.483 30.992 30.508 58.137 70.366 58.882 28.295.527 56.605.343 84.907.214 5.593-.026 11.18-1.26 16.773-1.914.278-.033-3.505.47.877.266-.31.118-9.79 1-.254.096-9.536.903-28.64-2.946-34.536-3.902-24.98-4.05-33.68-7.456-58.578-11.958-9.71-1.756-19.05-5.572-29.888-9.147zm107.518-323.582c-7.588-1.048-15.165-2.182-22.766-3.128-14.85-1.846-28.624-6.655-40.407-15.93-9.914-7.805-19.272-16.32-28.798-24.608-3.556-3.094-6.441-7.077-11.968-9.286.16 2.492.038 3.808.352 5.01 7.718 29.536 29.3 62.265 75.32 61.96 28.974-.19 57.95-.172 86.923-.307 2.294-.01 4.587-.484 6.88-.742.03-.665-13.62-1.113-13.59-1.78-21.3-3.566-28.92-7.35-51.948-11.188zM171.59 87.855c5.623.582 11.24 1.588 16.868 1.671 23.3.347 46.603.55 69.905.518 9.492-.013 18.983-.756 28.475-1.167-5.39-2.23-10.76-3.963-16.27-4.895-26.25-4.439-52.494-8.94-78.827-12.84-13.135-1.945-25.443-5.653-35.872-13.875-10.425-8.219-20.296-17.143-30.39-25.781-3.343-2.862-6.624-5.798-10.892-9.54 1.606 29.556 25.947 57.58 57.004 65.909z" fill="#F9D101"/><path d="M703.29 670.386c-26.71 28.63-58.064 46.513-97.225 48.408-38.893 1.883-69.56-12.636-89.812-46.554-8.178-13.695-11.79-29.035-11.926-44.916-.372-43.474 17.188-78.705 50.4-106.24 15.484-12.838 32.347-23.733 52.048-28.865 28.546-7.437 57.007-7.95 83.432 7.167 35.05 20.05 49.602 51.522 47.722 91.177-1.454 30.67-15.05 56.188-34.64 79.822z" fill="#FAD301"/><path d="M168.77 87.676c-30.237-8.15-54.578-36.175-56.184-65.73 4.268 3.743 7.55 6.678 10.892 9.54 10.094 8.638 19.965 17.562 30.39 25.781 10.43 8.222 22.737 11.93 35.874 13.875 26.332 3.9 52.577 8.401 78.827 12.84 5.507.932 10.88 2.666 16.268 4.895-9.492.41-18.983 1.154-28.475 1.167-23.302.031-46.605-.171-69.905-.518-5.63-.083-11.245-1.09-17.69-1.85z" fill="#271902"/><path d="M184.52 405.75c-4.577.172-9.504-.217-14.4-.85-12.188-1.575-24.333-3.54-36.55-4.842-20.823-2.22-39.095-10.204-55-23.632-6.588-5.56-12.782-11.59-19.132-17.433-2.87-2.64-5.683-5.344-8.954-8.427-1.679 11.826 8.333 31.76 21.429 44.593 12.738 12.482 28.198 18.315 46.54 19.754-1.684 4.464-5.704 3.304-9.116 2.88-26.247-3.26-44.537-17.688-56.131-40.984-2.652-5.328-4.417-11.11-6.406-16.75-.764-2.167-1.524-4.558-1.345-6.77.17-2.1 1.059-5.03 2.58-5.865 1.409-.773 4.473.194 6.098 1.374 2.93 2.125 5.37 4.942 7.946 7.54 11.271 11.362 23.493 21.54 37.673 29.078 9.723 5.168 20.015 8.14 31.21 9.13 12.834 1.133 25.54 3.907 38.242 6.3 5.078.955 9.99 2.793 15.314 4.902z" fill="#CCA206"/><path d="M896.936 387.56c-1.257 2.896-5.185 4.39-16.505 1.9 27.033 1.992-7.364.784-15.71 1.326-56.466-3.157 10.31-5.807 0-.33-38.79.828-78.043-.498-53.493-.498-3.928.382-11.293-.497-10.83 4.97-.463-.488 7.402 34.883 20.623 49.802 12.86 14.512 62.98 10.77 63.366 12.947-1.7 5.188-33.407 4.476-36.852 3.983-26.498-3.792-33.96-9.14-45.667-36.223-2.677-6.194-3.363-12.492-5.37-19.047-.77-2.52-1.654-5.892-1.473-8.465.17-2.438 1.485-10.408 1.976-6.425 8.838-2.49.3 2.874 5.88-4.03-7.365 14.44-6.37 7.515-5.88 4.03 0 0-7.868-8.513 50.534-5.694 9.816 6.01-12.283-1.192-.982-.044 12.96 1.318 57.01-.285 49.618 2.205-47.136 0-4.61-2.857.766-.406z" fill="#CCA206"/><path d="M217.09 242.602c-4.576.172-9.502-.216-14.398-.85-12.188-1.574-24.333-3.54-36.55-4.84-20.823-2.22-39.096-10.206-55-23.633-6.588-5.563-12.783-11.592-19.132-17.434-2.87-2.64-5.684-5.345-8.955-8.427-1.678 11.825 8.334 31.758 21.43 44.59 12.737 12.485 28.197 18.318 46.54 19.757-1.685 4.463-5.705 3.304-9.117 2.88-26.246-3.262-44.537-17.688-56.131-40.985-2.652-5.328-4.417-11.11-6.405-16.75-.764-2.166-1.524-4.558-1.346-6.77.17-2.098 1.06-5.03 2.58-5.865 1.41-.773 4.473.195 6.099 1.374 2.93 2.127 5.37 4.945 7.945 7.542 11.273 11.363 23.494 21.54 37.675 29.078 9.722 5.17 20.014 8.142 31.208 9.13 12.836 1.133 25.543 3.907 38.243 6.3 5.078.955 9.99 2.794 15.314 4.902z" fill="#CCA206"/><path d="M161.09 578.602c-4.576.172-9.503-.216-14.398-.85-12.19-1.574-24.334-3.54-36.55-4.84-20.824-2.22-39.096-10.206-55-23.633-6.589-5.563-12.783-11.592-19.133-17.434-2.871-2.64-5.684-5.345-8.956-8.427-1.678 11.825 8.334 31.758 21.43 44.59 12.737 12.485 28.198 18.318 46.54 19.757-1.684 4.463-5.704 3.304-9.117 2.88-26.246-3.262-44.536-17.688-56.13-40.985-2.652-5.328-4.418-11.11-6.406-16.75-.763-2.166-1.523-4.558-1.344-6.77.17-2.098 1.059-5.03 2.58-5.865 1.409-.773 4.473.195 6.098 1.374 2.93 2.127 5.37 4.945 7.946 7.542 11.272 11.363 23.493 21.54 37.674 29.078 9.723 5.17 20.015 8.142 31.21 9.13 12.834 1.133 25.54 3.907 38.242 6.3 5.078.956 9.99 2.794 15.314 4.902z" fill="#CCA206"/><path d="M249.09 79.602c-4.576.172-9.502-.216-14.398-.849-12.188-1.576-24.333-3.54-36.55-4.842-20.823-2.219-39.096-10.204-55-23.631-6.588-5.563-12.783-11.592-19.132-17.434-2.87-2.641-5.684-5.345-8.955-8.427-1.678 11.825 8.334 31.758 21.43 44.591 12.737 12.485 28.197 18.318 46.54 19.757-1.685 4.463-5.705 3.304-9.117 2.88-26.246-3.262-44.537-17.688-56.13-40.985-2.653-5.328-4.418-11.11-6.406-16.749-.764-2.167-1.525-4.559-1.346-6.772.17-2.096 1.06-5.028 2.58-5.863 1.41-.773 4.473.195 6.1 1.374 2.93 2.127 5.368 4.945 7.944 7.542 11.273 11.363 23.494 21.54 37.675 29.078 9.722 5.169 20.014 8.142 31.208 9.13 12.836 1.133 25.543 3.908 38.243 6.3 5.078.956 9.99 2.794 15.314 4.902z" fill="#CCA206"/><path d="M105.183 414.73C74.947 406.58 50.606 378.555 49 349c4.268 3.742 7.549 6.678 10.893 9.54 10.093 8.638 19.964 17.562 30.39 25.78 10.43 8.223 22.736 11.93 35.873 13.876 26.332 3.9 52.577 8.4 78.827 12.84 5.508.93 10.88 2.666 16.27 4.895-9.493.412-18.984 1.155-28.476 1.167-23.302.032-46.605-.17-69.905-.517-5.63-.083-11.245-1.09-17.69-1.85z" fill="#271902"/><path d="M82.183 587.73C51.947 579.58 27.606 551.555 26 522c4.267 3.742 7.548 6.678 10.892 9.54 10.094 8.638 19.964 17.562 30.39 25.78 10.43 8.223 22.737 11.93 35.873 13.876 26.333 3.9 52.578 8.4 78.828 12.84 5.508.93 10.88 2.666 16.27 4.895-9.493.412-18.984 1.155-28.476 1.167-23.302.032-46.606-.17-69.905-.517-5.63-.083-11.246-1.09-17.69-1.85z" fill="#271902"/><path d="M138.183 251.73C107.947 243.58 83.606 215.555 82 186c4.268 3.742 7.549 6.678 10.893 9.54 10.093 8.638 19.964 17.562 30.39 25.78 10.43 8.223 22.736 11.93 35.873 13.876 26.332 3.9 52.577 8.4 78.827 12.84 5.508.93 10.88 2.666 16.27 4.895-9.493.412-18.984 1.155-28.476 1.167-23.302.032-46.605-.17-69.905-.517-5.63-.083-11.245-1.09-17.69-1.85z" fill="#271902"/><path d="M646.984 624.704c-8.455 9.016-18.38 14.648-30.777 15.245-12.31.592-22.02-3.98-28.43-14.662-2.59-4.313-3.732-9.144-3.775-14.146-.118-13.69 5.44-24.786 15.954-33.458 4.902-4.043 10.24-7.474 16.476-9.09 9.036-2.342 18.046-2.503 26.41 2.257 11.096 6.316 15.702 16.227 15.107 28.715-.46 9.66-4.765 17.696-10.966 25.14z" fill="#CCA206"/><path d="M641.217 620.847c-6.74 7.163-14.655 11.638-24.538 12.113-9.817.47-17.557-3.162-22.67-11.65-2.063-3.426-2.974-7.264-3.01-11.238-.092-10.878 4.34-19.693 12.722-26.583 3.908-3.213 8.164-5.94 13.136-7.224 7.205-1.86 14.388-1.988 21.057 1.794 8.846 5.017 12.52 12.892 12.045 22.814-.367 7.674-3.8 14.06-8.743 19.973z" fill="black"/></g><defs><filter id="filter0_d_6_252" x="0" y="0" width="951.251" height="726.956" filterUnits="userSpaceOnUse" color-interpolation-filters="sRGB"><feFlood flood-opacity="0" result="BackgroundImageFix"/><feColorMatrix in="SourceAlpha" type="matrix" values="0 0 0 0 0 0 0 0 0 0 0 0 0 0 0 0 0 0 127 0" result="hardAlpha"/><feOffset dy="4"/><feGaussianBlur stdDeviation="2"/><feComposite in2="hardAlpha" operator="out"/><feColorMatrix type="matrix" values="0 0 0 0 0 0 0 0 0 0 0 0 0 0 0 0 0 0 0.25 0"/><feBlend mode="normal" in2="BackgroundImageFix" result="effect1_dropShadow_6_252"/><feBlend mode="normal" in="SourceGraphic" in2="effect1_dropShadow_6_252" result="shape"/></filter></defs></svg>